<?xml version="1.0" encoding="UTF-8" standalone="no"?>
<!-- Created with Inkscape (http://www.inkscape.org/) -->

<svg
   width="120"
   height="120"
   viewBox="0 0 120 120"
   version="1.1"
   id="svg1"
   inkscape:version="1.3 (0e150ed6c4, 2023-07-21)"
   sodipodi:docname="120x120.svg"
   inkscape:export-filename="120x120-2.svg"
   inkscape:export-xdpi="96"
   inkscape:export-ydpi="96"
   xmlns:inkscape="http://www.inkscape.org/namespaces/inkscape"
   xmlns:sodipodi="http://sodipodi.sourceforge.net/DTD/sodipodi-0.dtd"
   xmlns="http://www.w3.org/2000/svg"
   xmlns:svg="http://www.w3.org/2000/svg">
  <sodipodi:namedview
     id="namedview1"
     pagecolor="#505050"
     bordercolor="#ffffff"
     borderopacity="1"
     inkscape:showpageshadow="0"
     inkscape:pageopacity="0"
     inkscape:pagecheckerboard="1"
     inkscape:deskcolor="#d1d1d1"
     inkscape:document-units="px"
     inkscape:zoom="4.7906484"
     inkscape:cx="28.388641"
     inkscape:cy="44.357252"
     inkscape:window-width="1920"
     inkscape:window-height="1009"
     inkscape:window-x="1912"
     inkscape:window-y="-8"
     inkscape:window-maximized="1"
     inkscape:current-layer="layer1" />
  <defs
     id="defs1">
    <inkscape:path-effect
       effect="spiro"
       id="path-effect9"
       is_visible="true"
       lpeversion="1" />
    <inkscape:path-effect
       effect="spiro"
       id="path-effect8"
       is_visible="true"
       lpeversion="1" />
    <inkscape:path-effect
       effect="spiro"
       id="path-effect7"
       is_visible="true"
       lpeversion="1" />
    <inkscape:path-effect
       effect="spiro"
       id="path-effect6"
       is_visible="true"
       lpeversion="1" />
    <inkscape:path-effect
       effect="spiro"
       id="path-effect5"
       is_visible="true"
       lpeversion="1" />
    <inkscape:path-effect
       effect="spiro"
       id="path-effect4"
       is_visible="true"
       lpeversion="1" />
    <inkscape:path-effect
       effect="spiro"
       id="path-effect3"
       is_visible="true"
       lpeversion="1" />
    <inkscape:path-effect
       effect="spiro"
       id="path-effect2"
       is_visible="true"
       lpeversion="1" />
    <inkscape:path-effect
       effect="spiro"
       id="path-effect1"
       is_visible="true"
       lpeversion="1" />
  </defs>
  <g
     inkscape:label="Layer 1"
     inkscape:groupmode="layer"
     id="layer1">
    <rect
       style="fill:#2c2c25;fill-opacity:1;stroke:#353535;stroke-width:0.2;stroke-linecap:round;paint-order:stroke fill markers"
       id="rect1"
       width="120"
       height="120"
       x="0"
       y="0" />
    <path
       style="fill:none;stroke:#000000;stroke-width:1px;stroke-linecap:butt;stroke-linejoin:miter;stroke-opacity:1"
       d="m 61.995783,13.568101 c -1.341169,0.318337 -2.622307,0.887731 -3.75732,1.66992 -0.413438,0.284919 -0.80935,0.598782 -1.252441,0.83496 -0.609564,0.324913 -1.287949,0.492311 -1.945396,0.704206 -0.657448,0.211894 -1.318331,0.482493 -1.811924,0.965714 -0.221439,0.216786 -0.403833,0.471509 -0.631748,0.681476 -0.113957,0.104983 -0.239661,0.198717 -0.379656,0.265119 -0.139995,0.0664 -0.295022,0.104782 -0.449776,0.09711 -0.07017,-0.0035 -0.139568,-0.01629 -0.209612,-0.02182 -0.07004,-0.0055 -0.142291,-0.0034 -0.207868,0.02182 -0.09285,0.03572 -0.162501,0.113542 -0.222586,0.192832 -0.06008,0.07929 -0.11584,0.164253 -0.194894,0.224648 -0.08802,0.06725 -0.197875,0.09854 -0.306104,0.122135 -0.108228,0.02359 -0.21903,0.04131 -0.320116,0.08661 -0.135919,0.0609 -0.245776,0.167985 -0.341616,0.281994 -0.09584,0.114008 -0.18097,0.237253 -0.284604,0.344226 -0.161129,0.16632 -0.362434,0.288498 -0.570274,0.39061 -0.207841,0.102112 -0.42425,0.185927 -0.63254,0.287119 -0.208291,0.101191 -0.41053,0.22148 -0.573853,0.385646 -0.163322,0.164166 -0.286019,0.376297 -0.310733,0.606545 -0.01486,0.138466 0.0056,0.278333 0,0.41748 -0.0078,0.191998 -0.06565,0.37991 -0.152191,0.551477 -0.08654,0.171567 -0.201256,0.327619 -0.326411,0.473427 -0.25031,0.291616 -0.544212,0.545589 -0.773838,0.853756 -0.450381,0.604427 -0.618959,1.365238 -0.83496,2.0874 -0.726522,2.428993 -2.094761,4.638531 -2.71362,7.09716 -0.276547,1.098676 -0.398705,2.229974 -0.62622,3.339841 -0.184714,0.901073 -0.438979,1.78858 -0.572921,2.698587 -0.133942,0.910006 -0.142858,1.858555 0.155441,2.728653 0.107546,0.313699 0.253399,0.612686 0.378137,0.919954 0.124738,0.307268 0.229317,0.627615 0.248083,0.958706 0.01182,0.208466 -0.01061,0.417689 0,0.62622 0.03044,0.59804 0.328937,1.149218 0.670313,1.641194 0.341376,0.491976 0.73495,0.952752 0.999607,1.489906 0.33177,0.673367 0.448945,1.443593 0.83496,2.0874 0.330501,0.551219 0.835622,0.972307 1.336543,1.374987 0.500922,0.40268 1.015853,0.80704 1.377077,1.338633 0.196544,0.289243 0.350858,0.619397 0.62622,0.83496 0.245647,0.192301 0.559717,0.270634 0.83496,0.41748 0.308416,0.164545 0.562783,0.412058 0.819286,0.649548 0.256503,0.237491 0.526323,0.47244 0.850634,0.602892 0.204261,0.08216 0.424565,0.120373 0.62622,0.20874 0.321112,0.140714 0.573673,0.39815 0.823078,0.644545 0.249405,0.246395 0.515096,0.494504 0.846842,0.607895 0.10455,0.03573 0.213347,0.05715 0.320231,0.08515 0.106883,0.02799 0.213415,0.06328 0.305989,0.123594 0.165337,0.107724 0.271488,0.284713 0.41748,0.41748 0.140177,0.127479 0.314778,0.211754 0.494335,0.272252 0.179556,0.0605 0.365683,0.09874 0.549365,0.145229 1.428847,0.361646 2.67552,1.209765 3.959383,1.933704 0.641932,0.36197 1.303082,0.697091 2.003728,0.925549 0.700646,0.228457 1.444758,0.348139 2.17775,0.271847 0.209089,-0.02176 0.424398,-0.05882 0.62622,0 0.149711,0.04363 0.279181,0.136692 0.41748,0.20874 0.377546,0.196685 0.819829,0.234651 1.244201,0.200962 0.424372,-0.03369 0.840179,-0.134582 1.260679,-0.200962 1.789692,-0.282522 3.616519,0.06407 5.42724,0 1.913099,-0.06769 3.775843,-0.591571 5.63598,-1.0437 1.819884,-0.442345 3.663467,-0.821134 5.413255,-1.488882 1.749789,-0.667749 3.42407,-1.650794 4.606266,-3.103399 1.143162,-1.404643 1.757238,-3.151513 2.50488,-4.80102 0.803162,-1.772 1.79281,-3.504152 2.0874,-5.42724 0.211135,-1.378293 0.05254,-2.789205 0.20874,-4.1748 0.106634,-0.945947 0.35874,-1.869216 0.510813,-2.80893 0.152072,-0.939713 0.200552,-1.921612 -0.09333,-2.82705 -0.163679,-0.504282 -0.428516,-0.969242 -0.62622,-1.461181 -0.264281,-0.657602 -0.406091,-1.35657 -0.59459,-2.039763 -0.188499,-0.683193 -0.431756,-1.36665 -0.86659,-1.926297 -0.334095,-0.429992 -0.77513,-0.77875 -1.0437,-1.25244 -0.261865,-0.461865 -0.34178,-1.012864 -0.62622,-1.46118 -0.211929,-0.334028 -0.524241,-0.590128 -0.83496,-0.83496 -1.595044,-1.256818 -3.343274,-2.43078 -4.38354,-4.1748 -0.102966,-0.172625 -0.202405,-0.349915 -0.340745,-0.495734 -0.138341,-0.145818 -0.314434,-0.249336 -0.494215,-0.339226 l -2.0874,-1.0437 c -0.103455,-0.05173 -0.209272,-0.100559 -0.321644,-0.12797 -0.112371,-0.02741 -0.228759,-0.03358 -0.344421,-0.03458 -0.115662,-0.001 -0.233433,0.002 -0.344512,-0.03027 -0.05554,-0.01613 -0.108996,-0.04159 -0.152761,-0.0794 -0.04376,-0.03781 -0.07742,-0.08862 -0.0891,-0.14526 -0.01409,-0.06832 0.0041,-0.139098 0,-0.20874 -0.0063,-0.107554 -0.06646,-0.207173 -0.147822,-0.277794 -0.08136,-0.07062 -0.18243,-0.114946 -0.285474,-0.146394 -0.103044,-0.03145 -0.20931,-0.05099 -0.313517,-0.07833 -0.104208,-0.02735 -0.207739,-0.0632 -0.296888,-0.123698 -0.123176,-0.08358 -0.211028,-0.208348 -0.301136,-0.326835 -0.09011,-0.118488 -0.189891,-0.237083 -0.325084,-0.299385 -0.130401,-0.06009 -0.287079,-0.06009 -0.41748,0 -0.231699,-0.09975 -0.445032,-0.241968 -0.62622,-0.41748 -0.177918,-0.172345 -0.323462,-0.374659 -0.483135,-0.564033 -0.159673,-0.189373 -0.33859,-0.369735 -0.560565,-0.479667 -0.197413,-0.09777 -0.41867,-0.134893 -0.62622,-0.20874 -0.329911,-0.117384 -0.619903,-0.325707 -0.885575,-0.553828 -0.265671,-0.22812 -0.511958,-0.478554 -0.784345,-0.698612 -0.819643,-0.662176 -1.868764,-1.028619 -2.92236,-1.0437 -0.557293,-0.008 -1.11812,0.07846 -1.66992,0 -0.459785,-0.06538 -0.894974,-0.242774 -1.342227,-0.367838 -0.447254,-0.125064 -0.930858,-0.19663 -1.371393,-0.04964 -0.405308,0.135235 -0.738946,0.444145 -1.151364,0.555832 -0.206209,0.05584 -0.43472,0.05732 -0.625347,-0.03913 -0.09531,-0.04822 -0.179183,-0.120536 -0.235919,-0.211041 -0.05674,-0.09051 -0.08542,-0.199372 -0.07477,-0.305659 0.0035,-0.03514 0.01121,-0.06978 0.01416,-0.104978 0.003,-0.03519 8.8e-4,-0.07181 -0.01416,-0.103762 -0.01671,-0.03552 -0.04874,-0.06268 -0.08517,-0.07731 -0.03643,-0.01462 -0.07694,-0.01733 -0.115818,-0.01192 -0.07776,0.01082 -0.147246,0.05225 -0.216497,0.08923 -0.639096,0.341253 -1.448304,0.341253 -2.0874,0 z"
       id="path1"
       inkscape:path-effect="#path-effect1"
       inkscape:original-d="m 61.995783,13.568101 c -1.286359,0.39716 -2.571526,1.023123 -3.75732,1.66992 -0.440483,0.240263 -0.803663,0.610571 -1.252441,0.83496 -1.225872,0.612936 -2.595081,0.943521 -3.75732,1.66992 -0.281866,0.176166 -1.056381,0.908767 -1.46118,1.0437 -0.132019,0.04401 -0.293011,-0.06223 -0.41748,0 -0.176025,0.08801 -0.248723,0.316226 -0.41748,0.41748 -0.188675,0.113205 -0.443143,0.08669 -0.62622,0.20874 -0.245623,0.163749 -0.386003,0.454637 -0.62622,0.62622 -0.601817,0.429869 -1.710356,0.915832 -2.0874,1.66992 -0.06223,0.124468 0.06664,0.295312 0,0.41748 -0.360395,0.660724 -0.879034,1.2252 -1.25244,1.87866 -0.371806,0.650661 -0.546729,1.395647 -0.83496,2.0874 -0.978905,2.349371 -1.828001,4.73551 -2.71362,7.09716 -0.392952,1.047873 -0.408488,2.251179 -0.62622,3.339841 -0.33505,1.675249 -0.666384,3.684914 -0.41748,5.42724 0.10092,0.706444 0.51255,1.196641 0.62622,1.87866 0.03432,0.2059 -0.04094,0.421534 0,0.62622 0.08138,0.406917 1.383646,2.558552 1.66992,3.1311 0.335142,0.670283 0.471019,1.432307 0.83496,2.0874 0.650166,1.170299 1.804277,1.804277 2.71362,2.71362 0.246003,0.246003 0.362075,0.60855 0.62622,0.83496 0.236259,0.202508 0.564788,0.263096 0.83496,0.41748 0.607636,0.347221 1.059412,0.947186 1.66992,1.25244 0.196802,0.0984 0.429418,0.110339 0.62622,0.20874 0.631965,0.315983 1.091923,0.905642 1.66992,1.25244 0.188676,0.113206 0.437545,0.09553 0.62622,0.20874 0.168757,0.101254 0.246608,0.319839 0.41748,0.41748 0.325331,0.185904 0.708559,0.24991 1.0437,0.417481 2.273333,1.136666 5.592316,2.767022 8.140861,3.1311 0.206642,0.02952 0.421533,-0.04094 0.62622,0 0.152564,0.03051 0.263096,0.189442 0.41748,0.20874 0.828512,0.103564 1.66992,0 2.50488,0 1.781418,0 3.651221,0.148001 5.42724,0 1.897409,-0.158118 3.787424,-0.608746 5.63598,-1.0437 3.579405,-0.842213 7.453306,-1.705289 10.019521,-4.592281 1.439271,-1.61918 1.571681,-2.934621 2.50488,-4.80102 0.76171,-1.523421 1.87026,-3.690118 2.0874,-5.42724 0.173497,-1.387976 0.06908,-2.778156 0.20874,-4.1748 0.126578,-1.265783 0.789225,-4.396829 0.41748,-5.63598 -0.152267,-0.507558 -0.445128,-0.963179 -0.62622,-1.461181 -0.477107,-1.312044 -0.831682,-2.707064 -1.46118,-3.96606 -0.243033,-0.486065 -0.742255,-0.800273 -1.0437,-1.25244 -0.293939,-0.440908 -0.318219,-1.029978 -0.62622,-1.46118 -0.228778,-0.320289 -0.57577,-0.538743 -0.83496,-0.83496 -1.362463,-1.5571 -2.815495,-2.830762 -4.38354,-4.1748 -0.298847,-0.256154 -0.48291,-0.658935 -0.83496,-0.83496 -0.699521,-0.349761 -1.376336,-0.688168 -2.0874,-1.0437 -0.393604,-0.196802 -0.886286,-0.173377 -1.25244,-0.41748 -0.0579,-0.0386 0.0492,-0.15954 0,-0.20874 -0.286886,-0.286886 -0.73202,-0.366486 -1.043701,-0.62622 -0.226781,-0.188985 -0.373085,-0.47434 -0.62622,-0.62622 -0.119328,-0.0716 -0.27832,0 -0.41748,0 -0.20874,-0.13916 -0.42552,-0.266956 -0.62622,-0.41748 -0.381288,-0.285966 -0.63669,-0.799494 -1.0437,-1.0437 -0.188675,-0.113205 -0.437544,-0.09553 -0.62622,-0.20874 -0.570911,-0.342547 -1.099008,-0.909893 -1.66992,-1.25244 -0.605083,-0.36305 -2.195506,-0.861987 -2.92236,-1.0437 -0.484379,-0.121095 -1.230881,0.219519 -1.66992,0 -0.813435,-0.406718 -1.90095,-0.01115 -2.71362,-0.41748 -0.405805,-0.202903 -1.77064,0.316759 -2.0874,0 -0.0492,-0.0492 0.0492,-0.15954 0,-0.20874 -0.0984,-0.0984 -0.293012,0.06223 -0.41748,0 -0.863981,-0.431991 -0.932132,-0.577635 -2.0874,0 z" />
    <path
       style="fill:none;stroke:#000000;stroke-width:1px;stroke-linecap:butt;stroke-linejoin:miter;stroke-opacity:1"
       d="m 84.748444,39.660602 c -0.839681,0.06067 -1.638726,0.540094 -2.0874,1.25244 -0.109125,0.173254 -0.198967,0.359576 -0.326934,0.519419 -0.06398,0.07992 -0.137569,0.152953 -0.223002,0.209366 -0.08543,0.05641 -0.183168,0.09585 -0.285024,0.106175 -0.06927,0.007 -0.139113,6.31e-4 -0.20874,0 -0.285987,-0.0026 -0.566404,0.09294 -0.815235,0.233932 -0.248831,0.140991 -0.469395,0.326356 -0.683104,0.516418 -0.21371,0.190062 -0.422823,0.386478 -0.65474,0.553839 -0.231916,0.167361 -0.489574,0.306076 -0.769282,0.365731 -0.205659,0.04386 -0.420561,0.04386 -0.62622,0 -0.0085,0.05186 -0.03357,0.100869 -0.07072,0.138022 -0.03715,0.03715 -0.08616,0.06226 -0.138022,0.07072 -0.06984,0.01139 -0.14059,-0.0068 -0.21035,-0.01871 -0.03488,-0.0059 -0.07024,-0.01033 -0.105584,-0.0086 -0.03534,0.0017 -0.07085,0.0097 -0.101546,0.02734 -0.04305,0.02467 -0.07356,0.06591 -0.10326,0.105653 -0.0297,0.03975 -0.06134,0.08043 -0.10548,0.103087 -0.03147,0.01616 -0.06746,0.022 -0.102829,0.02166 -0.03537,-3.36e-4 -0.07041,-0.0066 -0.105098,-0.01352 -0.03469,-0.0069 -0.06935,-0.01454 -0.104589,-0.01764 -0.03524,-0.0031 -0.07136,-0.0016 -0.104964,0.0095 -0.0476,0.01565 -0.08734,0.04944 -0.119889,0.08754 -0.03255,0.0381 -0.05902,0.08094 -0.08885,0.121199 -0.1,0.134962 -0.237598,0.239817 -0.389161,0.312224 -0.151563,0.07241 -0.316904,0.113258 -0.483732,0.132818 -0.333655,0.03912 -0.670553,-0.0055 -1.005767,-0.02756 -0.48622,-0.03204 -0.974188,-0.0166 -1.46118,0 -3.617403,0.123291 -7.23639,0.309869 -10.85448,0.20874 -1.25404,-0.03505 -2.507114,-0.104667 -3.75732,-0.20874 l 0.41748,1.25244 c 0.265848,0.185841 0.428316,0.510777 0.41748,0.83496 -0.0023,0.06994 -0.01216,0.139411 -0.01649,0.209254 -0.0043,0.06984 -0.003,0.141013 0.01649,0.208226 0.02485,0.08577 0.07848,0.16135 0.144084,0.221939 0.0656,0.06059 0.142962,0.107109 0.222638,0.147438 0.15935,0.08066 0.333074,0.1401 0.468238,0.256843 0.132711,0.114624 0.216315,0.274236 0.301457,0.427539 0.08514,0.153303 0.17949,0.309204 0.324763,0.407421 0.09159,0.06192 0.198433,0.09723 0.30551,0.124737 0.107077,0.0275 0.216174,0.04803 0.32071,0.084 0.330077,0.11359 0.589562,0.371766 0.806168,0.645509 0.216607,0.273743 0.404434,0.57264 0.655012,0.815671 0.472531,0.458298 1.123012,0.677347 1.66992,1.0437 0.660633,0.442533 1.17008,1.100368 1.87866,1.46118 0.473071,0.24089 1.015326,0.338057 1.46118,0.62622 0.292502,0.189048 0.532376,0.453769 0.83496,0.62622 0.338991,0.1932 0.737217,0.258656 1.127332,0.265867 0.390115,0.0072 0.77899,-0.04029 1.168808,-0.05713 1.323609,-0.05718 2.641565,0.239151 3.96606,0.20874 1.608986,-0.03694 3.19751,-0.555142 4.801021,-0.41748 0.27872,0.02393 0.563414,0.06723 0.83496,0 0.26805,-0.06637 0.499856,-0.235884 0.696535,-0.42972 0.196679,-0.193836 0.365015,-0.41444 0.555905,-0.61398 0.53672,-0.561041 1.232225,-0.937461 1.868364,-1.382617 0.318069,-0.222577 0.624627,-0.465283 0.884959,-0.753269 0.260333,-0.287986 0.474022,-0.623658 0.586517,-0.995214 0.162852,-0.537878 0.106744,-1.117263 0.20874,-1.66992 0.132076,-0.715648 0.525262,-1.366703 0.62622,-2.0874 0.07732,-0.551925 -0.02136,-1.113015 0,-1.66992 0.02683,-0.699748 0.242924,-1.387973 0.20874,-2.0874 -0.02572,-0.526281 -0.196622,-1.044733 -0.488899,-1.483148 -0.292276,-0.438414 -0.705116,-0.795573 -1.181021,-1.021732 z"
       id="path2"
       inkscape:path-effect="#path-effect2"
       inkscape:original-d="m 84.748444,39.660602 c 0,0.638479 -1.594191,1.005835 -2.0874,1.25244 -0.35205,0.176025 -0.520077,0.598797 -0.83496,0.83496 -0.05566,0.04175 -0.15085,-0.0386 -0.20874,0 -1.002277,0.668184 -1.714926,1.267442 -2.922361,1.66992 -0.198028,0.06601 -0.438903,-0.132019 -0.62622,0 -0.09335,0.03112 -0.11539,0.17762 -0.20874,0.20874 -0.132018,0.04401 -0.285461,-0.04401 -0.41748,0 -0.09335,0.03112 -0.11539,0.17762 -0.20874,0.20874 -0.132018,0.04401 -0.285461,-0.04401 -0.41748,0 -0.09335,0.03112 -0.12073,0.16473 -0.20874,0.20874 -0.4222,0.2111 -1.395164,0.3369 -1.87866,0.41748 -0.473896,0.07898 -0.987284,-0.07898 -1.46118,0 -3.503059,0.583843 -7.321475,0.20874 -10.85448,0.20874 -2.369191,0 -1.116043,0.05539 -3.75732,-0.20874 0.13916,0.41748 0.27832,0.83496 0.41748,1.25244 0.13916,0.27832 0.319079,0.539757 0.41748,0.83496 0.04401,0.132019 -0.07719,0.301692 0,0.41748 0.19298,0.28947 0.588957,0.380218 0.83496,0.62622 0.246002,0.246003 0.3479,0.62622 0.62622,0.83496 0.176025,0.132019 0.443143,0.08669 0.62622,0.20874 0.556637,0.371092 0.936767,1.04165 1.46118,1.46118 0.511712,0.40937 1.155498,0.657884 1.66992,1.0437 0.62527,0.468953 1.224881,1.025328 1.87866,1.46118 0.446531,0.297687 1.018453,0.360584 1.46118,0.62622 0.849532,0.50972 -0.01314,0.343521 0.83496,0.62622 0.816406,0.272136 1.523717,0.01563 2.29614,0.20874 1.264429,0.316108 2.628739,0.20874 3.96606,0.20874 1.652123,0 3.16658,-0.213175 4.801021,-0.41748 0.27617,-0.03452 0.576546,0.103366 0.83496,0 0.574179,-0.229672 0.803491,-0.676378 1.25244,-1.0437 0.14352,-0.117425 3.106485,-2.431035 3.33984,-3.1311 0.167931,-0.503794 0.121401,-1.14589 0.20874,-1.66992 0.110876,-0.665257 0.352288,-1.539537 0.62622,-2.0874 0.172018,-0.344037 -0.03335,-1.36974 0,-1.66992 0.03538,-0.318452 0.441219,-1.622442 0.20874,-2.0874 -0.457133,-0.914266 -0.95897,-1.616192 -1.66992,-2.50488 z" />
    <path
       style="fill:none;stroke:#000000;stroke-width:1px;stroke-linecap:butt;stroke-linejoin:miter;stroke-opacity:1"
       d="m 53.437442,33.189661 c -0.162935,-0.3786 -0.211505,-0.805549 -0.137774,-1.211072 0.07373,-0.405524 0.26948,-0.788051 0.555254,-1.085068 0.205061,-0.213128 0.455942,-0.384396 0.62622,-0.62622 0.16525,-0.234682 0.242751,-0.519249 0.381249,-0.770649 0.06925,-0.125699 0.155114,-0.24436 0.267033,-0.334192 0.111919,-0.08983 0.251916,-0.14929 0.395418,-0.147599 0.07048,8.31e-4 0.139906,0.01609 0.209998,0.02349 0.07009,0.0074 0.143622,0.0063 0.207482,-0.02349 0.04501,-0.02102 0.08266,-0.05522 0.115469,-0.09252 0.03281,-0.0373 0.06143,-0.07808 0.09327,-0.116216 0.163074,-0.195295 0.405376,-0.312741 0.654681,-0.363536 0.249306,-0.05079 0.507062,-0.03997 0.76016,-0.014 0.253098,0.02598 0.505022,0.0669 0.759296,0.07574 0.254274,0.0088 0.514235,-0.01578 0.748224,-0.115689 0.140237,-0.05988 0.267783,-0.145257 0.397651,-0.225173 0.129867,-0.07992 0.264892,-0.155631 0.412704,-0.193098 0.147812,-0.03747 0.311425,-0.03331 0.444758,0.04068 0.06667,0.037 0.12437,0.09108 0.162083,0.157338 0.03771,0.06626 0.05479,0.144782 0.04398,0.220256 -0.0051,0.03551 -0.01612,0.07001 -0.02034,0.105633 -0.0021,0.01781 -0.0025,0.03593 4.62e-4,0.05363 0.0029,0.01769 0.0093,0.03498 0.01988,0.04948 0.01083,0.01489 0.02585,0.02651 0.04254,0.03429 0.01669,0.0078 0.035,0.01178 0.05338,0.0128 0.03676,0.002 0.07316,-0.0076 0.108012,-0.01947 0.03485,-0.01188 0.06905,-0.02612 0.105057,-0.03382 0.036,-0.0077 0.07472,-0.0084 0.108495,0.0062 0.03708,0.01608 0.06466,0.04932 0.08165,0.086 0.01699,0.03668 0.02454,0.07692 0.03106,0.116812 0.0065,0.03989 0.01225,0.08023 0.02597,0.118253 0.01372,0.03802 0.03634,0.07413 0.07006,0.09641 0.02975,0.01965 0.06622,0.02725 0.101877,0.02709 0.03565,-1.51e-4 0.07085,-0.0076 0.105517,-0.01593 0.03466,-0.0083 0.06924,-0.01764 0.104676,-0.02161 0.03543,-0.004 0.07216,-0.0024 0.10541,0.01045 0.03759,0.01453 0.0688,0.04289 0.09151,0.07617 0.02272,0.03329 0.03746,0.07141 0.04855,0.11015 0.02218,0.07749 0.03091,0.159952 0.06868,0.231156 0.04297,0.08102 0.119924,0.139469 0.202484,0.17941 0.08256,0.03994 0.171811,0.06364 0.25897,0.09218 0.08716,0.02854 0.174234,0.06299 0.245503,0.120716 0.03563,0.02886 0.06695,0.06344 0.08978,0.103209 0.02282,0.03977 0.03698,0.08486 0.03823,0.130701 9.58e-4,0.03509 -0.0055,0.06989 -0.009,0.104823 -0.0035,0.03493 -0.0038,0.07122 0.009,0.103917 0.0108,0.02765 0.03062,0.05135 0.05463,0.06879 0.02402,0.01744 0.05212,0.02881 0.08108,0.03531 0.05793,0.01299 0.11822,0.0068 0.177253,5.17e-4 0.05903,-0.0063 0.119311,-0.01252 0.17726,3.69e-4 0.02898,0.0064 0.05709,0.01775 0.08115,0.03513 0.02406,0.01738 0.04395,0.04102 0.05484,0.06863 0.01289,0.03266 0.01274,0.06897 0.0093,0.103907 -0.0034,0.03494 -0.01,0.06973 -0.0093,0.104833 0.0017,0.0846 0.04654,0.164711 0.109813,0.220889 0.06327,0.05618 0.143492,0.09037 0.225547,0.111017 0.16411,0.04129 0.339129,0.03185 0.4996,0.08557 0.193441,0.06476 0.352723,0.224039 0.41748,0.41748"
       id="path3"
       inkscape:path-effect="#path-effect3"
       inkscape:original-d="m 53.437442,33.189661 c 1.628859,0.578259 0.380035,-2.202527 0.41748,-2.29614 0.109636,-0.274089 0.441809,-0.395705 0.62622,-0.62622 0.138163,-0.172702 0.876566,-1.196728 1.0437,-1.25244 0.132019,-0.04401 0.285462,0.04401 0.41748,0 0.09335,-0.03112 0.120728,-0.164733 0.20874,-0.20874 0.90375,-0.451875 1.902888,-0.41748 2.922361,-0.41748 0.257498,0 1.278268,-0.182912 1.46118,0 0.0492,0.0492 -0.06223,0.177623 0,0.20874 0.124468,0.06224 0.301692,-0.07719 0.41748,0 0.129455,0.0863 0.07928,0.331177 0.20874,0.41748 0.115788,0.07719 0.301692,-0.07719 0.41748,0 0.129455,0.0863 0.122436,0.288025 0.20874,0.41748 0.214151,0.321227 0.718393,0.509654 0.83496,0.62622 0.0492,0.0492 -0.0492,0.15954 0,0.20874 0.03846,0.03846 0.587757,0.170277 0.62622,0.20874 0.0492,0.0492 -0.0492,0.15954 0,0.20874 0.120985,0.120986 0.713974,0.296495 0.83496,0.41748 0.17196,0.171961 -0.01126,0.41748 0.41748,0.41748" />
    <path
       style="fill:none;stroke:#000000;stroke-width:1px;stroke-linecap:butt;stroke-linejoin:miter;stroke-opacity:1"
       d="m 70.345383,30.058561 c 0.654742,-0.87748 1.152041,-1.872079 1.46118,-2.92236 0.06219,-0.211283 0.117234,-0.425884 0.20874,-0.62622 0.201684,-0.441549 0.570843,-0.789119 0.981576,-1.047847 0.410733,-0.258729 0.865564,-0.437572 1.314564,-0.622073 0.166669,-0.06849 0.333663,-0.1382 0.508341,-0.182431 0.174678,-0.04423 0.358802,-0.06232 0.535359,-0.02631 0.163133,0.03327 0.314354,0.111586 0.450221,0.207812 0.135866,0.09623 0.257841,0.210436 0.379961,0.3236 0.122119,0.113164 0.245427,0.226123 0.383349,0.319379 0.137922,0.09326 0.291967,0.166745 0.456389,0.192909 0.11332,0.01803 0.229527,0.01337 0.342333,0.03439 0.0564,0.01051 0.112046,0.0276 0.161942,0.05592 0.0499,0.02832 0.09395,0.06836 0.121945,0.118437 0.03976,0.07112 0.04454,0.155744 0.06457,0.234722 0.01001,0.03949 0.02426,0.07847 0.04776,0.111747 0.0235,0.03328 0.05702,0.06062 0.09641,0.07101 0.03625,0.0096 0.07493,0.0044 0.110909,-0.0062 0.03598,-0.01055 0.07022,-0.02627 0.105756,-0.03822 0.03554,-0.01195 0.07332,-0.02017 0.110444,-0.01494 0.01856,0.0026 0.03676,0.0086 0.05263,0.01861 0.01587,0.01 0.02936,0.02398 0.03774,0.04075 0.0079,0.01578 0.01108,0.0336 0.01139,0.05124 3.11e-4,0.01764 -0.0022,0.03521 -0.0052,0.05259 -0.006,0.03477 -0.01407,0.07051 -0.0062,0.104909 0.0069,0.03036 0.02616,0.05721 0.05099,0.07599 0.02483,0.01878 0.05497,0.02983 0.08573,0.03462 0.06153,0.0096 0.12392,-0.005 0.184776,-0.01824 0.06086,-0.0132 0.124389,-0.02503 0.184838,-0.01008 0.03023,0.0075 0.05912,0.02185 0.08126,0.04374 0.02214,0.02189 0.03713,0.05159 0.03862,0.08269 0.0018,0.03671 -0.01463,0.07151 -0.02309,0.107275 -0.0042,0.01788 -0.0065,0.03653 -0.0034,0.05465 0.003,0.01812 0.01185,0.03576 0.02652,0.04682 0.0144,0.01086 0.03322,0.01455 0.05124,0.01365 0.01802,-9.01e-4 0.03553,-0.006 0.05277,-0.0113 0.01725,-0.0053 0.03459,-0.01079 0.05255,-0.01251 0.01796,-0.0017 0.03685,6.5e-4 0.05218,0.01016 0.01595,0.0099 0.02674,0.02688 0.03153,0.04503 0.0048,0.01815 0.004,0.03741 3.71e-4,0.05583 -0.0072,0.03684 -0.02527,0.07093 -0.0319,0.107884 -0.007,0.03916 -6.75e-4,0.08017 0.01513,0.116686 0.01581,0.03651 0.04077,0.06866 0.07025,0.09539 0.05895,0.05345 0.134218,0.08479 0.208547,0.113209 0.07433,0.02842 0.150537,0.05555 0.21463,0.102713 0.03205,0.02358 0.06077,0.05214 0.08196,0.08582 0.02119,0.03368 0.03465,0.07263 0.03571,0.112409 9.44e-4,0.03534 -0.0077,0.07013 -0.01229,0.105181 -0.0023,0.01753 -0.0035,0.03527 -0.002,0.05288 0.0015,0.01761 0.0059,0.03513 0.01429,0.05068 0.0089,0.01647 0.02227,0.03039 0.03787,0.04077 0.01559,0.01038 0.03339,0.01727 0.05174,0.02104 0.0367,0.0075 0.07496,0.0026 0.111153,-0.0071 0.03619,-0.0097 0.07097,-0.02397 0.106583,-0.03559 0.03562,-0.01162 0.07271,-0.02062 0.110141,-0.01914 0.03877,0.0015 0.077,0.01459 0.108611,0.03709 0.0316,0.0225 0.05646,0.05436 0.0706,0.09049 0.01414,0.03613 0.0175,0.0764 0.0096,0.114372 -0.0079,0.03797 -0.02717,0.07352 -0.0546,0.100949 -0.02743,0.02743 -0.06297,0.04666 -0.100949,0.0546 -0.03797,0.0079 -0.07824,0.0046 -0.114372,-0.0096 -0.03613,-0.01414 -0.06799,-0.03899 -0.09049,-0.0706 -0.0225,-0.03161 -0.03556,-0.06985 -0.03709,-0.108611"
       id="path4"
       inkscape:path-effect="#path-effect4"
       inkscape:original-d="m 70.345383,30.058561 c 0.72821,-0.851228 0.850143,-2.005804 1.46118,-2.92236 0.65271,-0.979065 -0.279968,0.839905 0.20874,-0.62622 0.355781,-1.067342 1.417194,-1.318341 2.29614,-1.66992 0.379248,-0.151699 0.535847,-0.310311 1.0437,-0.20874 0.781876,0.156375 1.044056,0.730768 1.66992,1.0437 0.514117,0.257058 -0.188436,-0.605917 0.62622,0.20874 0.110016,0.110016 0.07928,0.331177 0.20874,0.41748 0.115789,0.07719 0.293012,-0.06223 0.41748,0 0.06224,0.03112 -0.0492,0.15954 0,0.20874 0.155586,0.155586 0.470635,0.05316 0.62622,0.20874 0.0492,0.0492 -0.0492,0.15954 0,0.20874 0.0492,0.0492 0.15954,-0.0492 0.20874,0 0.0492,0.0492 -0.0386,0.150846 0,0.20874 0.16375,0.245624 0.494202,0.362183 0.62622,0.62622 0.03112,0.06223 -0.0492,0.15954 0,0.20874 0.0984,0.0984 0.31908,-0.0984 0.417481,0 0.06958,0.06958 -0.11034,0.20874 -0.20874,0.20874" />
    <path
       style="fill:none;stroke:#000000;stroke-width:1px;stroke-linecap:butt;stroke-linejoin:miter;stroke-opacity:1"
       d="m 66.170583,61.995783 c 1.106629,2.974991 0.96008,6.393943 -0.397061,9.263327 -1.357142,2.869385 -3.907087,5.151595 -6.908839,6.183433 -0.352759,0.121259 -0.718246,0.226985 -1.091199,0.220008 -0.186476,-0.0035 -0.373407,-0.03573 -0.54622,-0.105883 -0.172813,-0.07015 -0.331227,-0.179049 -0.449982,-0.322865 -0.06382,-0.07729 -0.115743,-0.163796 -0.179346,-0.241262 -0.0636,-0.07747 -0.142117,-0.147461 -0.238134,-0.176218 -0.06701,-0.02007 -0.138479,-0.01887 -0.208196,-0.01312 -0.06972,0.0058 -0.139386,0.0159 -0.209284,0.01312 -0.160218,-0.0064 -0.316251,-0.08439 -0.41748,-0.20874 -0.193104,-0.107612 -0.409448,-0.165386 -0.62622,-0.20874 l -1.0437,-0.20874 h -0.83496 c -0.956303,-0.524525 -2.040601,-0.813671 -3.1311,-0.83496 -0.208705,-0.0041 -0.41748,0.0015 -0.62622,0 -1.713201,-0.01216 -3.386226,-0.496578 -5.00976,-1.0437 -1.605709,-0.541115 -3.189111,-1.147564 -4.80102,-1.66992 -0.543615,-0.176164 -1.095612,-0.345004 -1.589962,-0.631657 -0.494349,-0.286653 -0.933985,-0.707952 -1.123658,-1.247003 -0.02614,-0.0743 -0.04743,-0.150409 -0.0781,-0.222964 -0.03066,-0.07256 -0.07159,-0.142386 -0.130642,-0.194516 -0.05858,-0.05171 -0.131812,-0.0834 -0.204667,-0.111638 -0.07285,-0.02823 -0.147479,-0.05425 -0.212813,-0.0971 -0.07383,-0.04842 -0.13293,-0.116686 -0.181111,-0.190671 -0.04818,-0.07398 -0.08615,-0.154034 -0.124724,-0.233452 -0.03857,-0.07942 -0.07811,-0.15884 -0.129045,-0.230956 -0.05094,-0.07212 -0.114075,-0.137159 -0.19134,-0.179881 -0.09721,-0.05375 -0.210146,-0.06917 -0.319418,-0.08914 -0.109271,-0.01998 -0.222168,-0.04765 -0.306802,-0.119596 -0.06009,-0.05108 -0.101389,-0.121055 -0.131852,-0.193798 -0.03046,-0.07274 -0.05108,-0.149158 -0.07689,-0.223682 -0.176194,-0.50887 -0.587343,-0.90668 -1.045108,-1.190307 -0.457765,-0.283626 -0.967522,-0.469991 -1.459773,-0.688353 -0.973774,-0.431966 -1.889177,-0.995291 -2.71362,-1.66992 -0.714833,-0.459086 -1.411369,-0.946662 -2.0874,-1.46118 -0.259393,-0.197421 -0.516915,-0.399846 -0.739936,-0.637587 -0.223021,-0.237742 -0.411738,-0.513584 -0.512504,-0.823593 -0.08876,-0.27309 -0.107619,-0.5662 -0.20874,-0.83496 -0.08863,-0.23557 -0.237122,-0.443446 -0.391827,-0.64198 -0.154705,-0.198534 -0.318121,-0.392008 -0.443133,-0.61046 -0.263692,-0.460787 -0.344471,-1.011208 -0.62622,-1.46118 -0.270762,-0.432425 -0.702908,-0.73479 -1.044773,-1.113514 -0.170933,-0.189362 -0.321456,-0.40192 -0.406977,-0.642257 -0.08552,-0.240338 -0.101789,-0.511316 -0.0094,-0.74911 0.04256,-0.109585 0.107497,-0.211823 0.128514,-0.327489 0.01051,-0.05783 0.0093,-0.118814 -0.01138,-0.173823 -0.02071,-0.05501 -0.06242,-0.103411 -0.117132,-0.124908 -0.0328,-0.01289 -0.06879,-0.01583 -0.103988,-0.01394 -0.03519,0.0019 -0.06994,0.0084 -0.104752,0.01394 -0.510931,0.08087 -1.054232,-0.07239 -1.447568,-0.408367 -0.393336,-0.335973 -0.62966,-0.848631 -0.62966,-1.365923 0,-0.517292 0.236324,-1.02995 0.62966,-1.365923 0.393336,-0.335973 0.936637,-0.489241 1.447568,-0.408367"
       id="path5"
       inkscape:path-effect="#path-effect5"
       inkscape:original-d="m 66.170583,61.995783 c -1.025131,5.271694 -1.459523,13.108209 -7.3059,15.44676 -0.441425,0.17657 -1.733021,-0.03155 -2.087401,-0.20874 -0.176025,-0.08801 -0.241454,-0.329467 -0.41748,-0.41748 -0.124468,-0.06223 -0.282475,0.03375 -0.41748,0 -0.15094,-0.03773 -0.27832,-0.13916 -0.41748,-0.20874 -0.20874,-0.06958 -0.412758,-0.155374 -0.62622,-0.20874 -0.3479,-0.06958 -0.6958,-0.13916 -1.0437,-0.20874 -0.27832,0 -0.561407,0.05129 -0.83496,0 -1.218214,0.372866 -2.071904,-0.623121 -3.1311,-0.83496 -0.204686,-0.04094 -0.439517,0.09335 -0.62622,0 -1.470633,-0.735316 -3.377883,-0.63573 -5.00976,-1.0437 -1.302852,-0.325713 -3.616596,-1.131545 -4.80102,-1.66992 -0.197411,-0.08973 -2.559239,-1.647087 -2.71362,-1.87866 -0.0863,-0.129455 -0.09873,-0.307464 -0.20874,-0.41748 -0.431891,-0.43189 0.01688,0.659986 -0.41748,-0.20874 -0.03856,-0.07711 -0.546893,-0.775465 -0.62622,-0.83496 -0.176025,-0.132019 -0.450195,-0.07672 -0.62622,-0.20874 -0.124469,-0.09335 -0.09873,-0.307464 -0.20874,-0.41748 -0.662212,-0.662212 -1.753672,-1.332326 -2.504881,-1.87866 -4.60453,-3.34875 2.409101,1.876579 -2.71362,-1.66992 -2.480233,-2.066861 -0.200221,-0.328873 -2.0874,-1.46118 -0.197937,-0.118762 -1.229424,-1.420903 -1.25244,-1.46118 -0.142335,-0.249087 -0.09573,-0.571271 -0.20874,-0.83496 -0.197648,-0.46118 -0.576812,-0.822195 -0.83496,-1.25244 -0.280386,-0.467311 -0.387594,-0.983929 -0.62622,-1.46118 -0.392024,-0.784049 -1.183495,-1.671825 -1.46118,-2.504881 -0.06601,-0.198028 0.06601,-0.428191 0,-0.62622 -0.022,-0.06601 -0.186737,0.06601 -0.20874,0 -0.253736,-0.761209 0,-2.613765 0,-3.54858" />
    <path
       style="fill:none;stroke:#000000;stroke-width:1px;stroke-linecap:butt;stroke-linejoin:miter;stroke-opacity:1"
       d="m 66.379323,70.971603 c 2.12446,2.270098 4.691725,4.124234 7.51464,5.42724 2.384076,1.100446 4.935026,1.80585 7.514641,2.29614 3.505355,0.66624 7.116271,0.941157 10.64574,0.41748 0.878905,-0.130406 1.779397,-0.321974 2.50488,-0.83496 0.611406,-0.432323 1.052698,-1.061362 1.447205,-1.697824 0.394507,-0.636462 0.759545,-1.299573 1.266415,-1.850756 0.218328,-0.237415 0.460731,-0.451447 0.685084,-0.683177 0.224353,-0.231729 0.432895,-0.484826 0.567356,-0.778003 0.138488,-0.301956 0.193164,-0.634148 0.263937,-0.958721 0.07077,-0.324573 0.16302,-0.654137 0.362283,-0.919939 0.07611,-0.101531 0.166374,-0.191632 0.245473,-0.290855 0.0791,-0.09922 0.14819,-0.210727 0.172007,-0.335365 0.01968,-0.102986 0.0075,-0.20904 -0.0036,-0.313302 -0.01108,-0.104263 -0.0208,-0.210953 0.0036,-0.312918 0.02945,-0.122938 0.106098,-0.228871 0.187348,-0.325717 0.08125,-0.09685 0.169684,-0.189477 0.230132,-0.300503 0.06888,-0.126498 0.09788,-0.270449 0.120436,-0.412702 0.0226,-0.142253 0.0399,-0.286608 0.0883,-0.422258 0.0525,-0.14712 0.13972,-0.278817 0.22205,-0.411573 0.0823,-0.132756 0.16163,-0.270879 0.19543,-0.423387 0.0453,-0.204489 0.005,-0.416839 0,-0.62622 -0.0144,-0.554406 0.21315,-1.084242 0.45651,-1.582587 0.24336,-0.498346 0.51114,-0.999159 0.58719,-1.548513 0.0287,-0.207434 0.0292,-0.41886 0,-0.62622 -0.0663,-0.470347 -0.28974,-0.917167 -0.62622,-1.25244"
       id="path6"
       inkscape:path-effect="#path-effect6"
       inkscape:original-d="m 66.379323,70.971603 c 1.582811,3.034522 4.409345,4.254129 7.51464,5.42724 2.688341,1.015596 4.883702,1.578612 7.514641,2.29614 3.776616,1.029987 6.952821,1.402259 10.64574,0.41748 0.681569,-0.181751 1.8456,-0.39544 2.50488,-0.83496 0.895465,-0.596976 1.934163,-2.639213 2.71362,-3.54858 0.385798,-0.450097 0.944343,-0.947683 1.25244,-1.46118 0.330707,-0.551177 0.380178,-1.304561 0.62622,-1.87866 0.09882,-0.23059 0.338147,-0.38822 0.41748,-0.62622 0.06601,-0.198028 -0.06601,-0.428192 0,-0.62622 0.07933,-0.238 0.318656,-0.39563 0.41748,-0.62622 0.113006,-0.26369 0.108006,-0.566341 0.208736,-0.83496 0.10926,-0.291359 0.332,-0.535761 0.41748,-0.83496 0.0573,-0.200709 -0.0549,-0.424835 0,-0.62622 0.27849,-1.021114 0.866,-2.064877 1.0437,-3.1311 0.0343,-0.2059 -0.0343,-0.42032 0,-0.62622 0.19873,-1.192377 0.63708,-1.25244 -0.62622,-1.25244" />
    <path
       style="fill:none;stroke:#000000;stroke-width:1px;stroke-linecap:butt;stroke-linejoin:miter;stroke-opacity:1"
       d="m 59.490903,77.233803 c 0.164356,3.269123 0.303522,6.539513 0.41748,9.810781 0.0192,0.5511 0.03805,1.105402 0.149867,1.64538 0.111819,0.539978 0.322521,1.070243 0.685093,1.48572 0.259018,0.296813 0.588364,0.527748 0.83496,0.83496 0.206253,0.256953 0.347661,0.558491 0.496459,0.852471 0.148798,0.293981 0.310507,0.588272 0.547241,0.817449 0.292843,0.283496 0.677855,0.44654 1.0437,0.62622 1.040811,0.511179 1.98434,1.196963 2.92236,1.87866 1.292878,0.939586 2.627016,1.897742 4.1748,2.29614 0.680714,0.175215 1.385467,0.236817 2.072868,0.383623 0.687401,0.146806 1.377396,0.391296 1.893192,0.868817 0.149042,0.137982 0.281048,0.293178 0.424368,0.437094 0.143321,0.143915 0.300636,0.278262 0.485069,0.363333 0.184432,0.08507 0.399768,0.117115 0.592628,0.05342 0.09643,-0.03185 0.185569,-0.0874 0.253122,-0.163221 0.06755,-0.07583 0.112855,-0.172147 0.123473,-0.273144 0.0073,-0.06925 -0.0015,-0.139128 0,-0.20874 0.004,-0.190556 0.08541,-0.373689 0.20136,-0.524959 0.115952,-0.151271 0.265164,-0.273702 0.419583,-0.385428 0.154418,-0.111725 0.315613,-0.214331 0.464019,-0.333928 0.148405,-0.119597 0.285165,-0.258163 0.376218,-0.425605 0.105352,-0.193737 0.144302,-0.415315 0.20874,-0.62622 0.230853,-0.755576 0.783238,-1.362192 1.305082,-1.955376 0.260922,-0.296592 0.51894,-0.597617 0.734519,-0.928635 0.21558,-0.331018 0.38866,-0.694523 0.46528,-1.082049 0.108276,-0.547634 0.0202,-1.11205 0,-1.66992 -0.02519,-0.695638 0.05596,-1.39356 0,-2.0874 -0.09941,-1.232518 -0.640399,-2.415015 -1.461181,-3.33984 -0.137394,-0.15481 -0.28294,-0.303454 -0.401632,-0.473029 -0.118691,-0.169574 -0.210628,-0.364156 -0.224588,-0.570671 -0.0071,-0.104535 0.0059,-0.209223 0.01418,-0.313672 0.0083,-0.104448 0.0116,-0.210997 -0.01418,-0.312548 -0.04324,-0.170286 -0.163451,-0.309506 -0.287144,-0.434274 -0.123693,-0.124768 -0.25712,-0.245283 -0.339076,-0.400686 -0.06716,-0.127353 -0.09582,-0.27109 -0.118713,-0.413235 -0.0229,-0.142145 -0.04115,-0.286297 -0.09003,-0.421725 -0.08561,-0.237222 -0.258293,-0.430609 -0.41748,-0.62622 -0.538741,-0.662011 -0.970669,-1.445749 -1.0437,-2.296141 -0.02714,-0.31602 -0.0046,-0.637789 -0.0729,-0.947539 -0.03413,-0.154874 -0.09159,-0.306238 -0.183449,-0.435521 -0.09185,-0.129282 -0.219771,-0.23565 -0.369867,-0.28686 -0.134109,-0.04575 -0.283371,-0.04575 -0.41748,0"
       id="path7"
       inkscape:path-effect="#path-effect7"
       inkscape:original-d="m 59.490903,77.233803 c 0.254009,3.248044 -0.06706,6.580541 0.41748,9.810781 0.101353,0.675691 0.349352,2.402688 0.83496,3.1311 0.214401,0.321601 0.609969,0.519973 0.83496,0.83496 0.381534,0.534148 0.579543,1.205764 1.0437,1.66992 0.78309,0.783091 0.384829,0.132067 1.0437,0.62622 0.977895,0.733422 1.821186,1.28572 2.92236,1.87866 1.398358,0.752962 2.745173,1.604385 4.1748,2.29614 2.043774,0.988923 2.063737,0.66711 3.96606,1.25244 0.458218,0.14099 1.610118,0.686022 1.87866,0.41748 0.0492,-0.0492 -0.03112,-0.146505 0,-0.20874 0.307732,-0.615463 1.149998,-1.047555 1.46118,-1.66992 0.07626,-0.15252 0.112092,-0.497356 0.20874,-0.62622 0.735489,-0.980651 2.389849,-2.700718 2.504881,-3.96606 0.0504,-0.554354 0,-1.11328 0,-1.66992 0,-0.540976 0.141273,-1.522307 0,-2.0874 -0.279498,-1.117992 -0.944359,-2.306197 -1.461181,-3.33984 -0.181442,-0.362885 -0.483763,-0.663815 -0.62622,-1.0437 -0.07329,-0.19545 0.05063,-0.423713 0,-0.62622 -0.04083,-0.163318 -0.541459,-0.665439 -0.62622,-0.83496 -0.911681,-1.823363 0.364326,0.884237 -0.20874,-0.83496 -0.07207,-0.216217 -0.313937,-0.419136 -0.41748,-0.62622 -0.347723,-0.695447 -0.720821,-1.542756 -1.0437,-2.296141 -0.138387,-0.322904 -0.425375,-1.469075 -0.62622,-1.66992 -0.0984,-0.0984 -0.27832,0 -0.41748,0" />
    <path
       style="fill:none;stroke:#000000;stroke-width:1px;stroke-linecap:butt;stroke-linejoin:miter;stroke-opacity:1"
       d="m 65.961843,96.437884 c -0.126848,1.233407 -0.482581,2.4429 -1.0437,3.54858 -0.46523,0.916726 -1.069994,1.762926 -1.46118,2.713616 -0.444172,1.07946 -0.599096,2.26056 -1.0437,3.33984 -0.404846,0.98277 -1.048345,1.87925 -1.25244,2.92236 -0.0471,0.24073 -0.07038,0.488 -0.154242,0.71852 -0.04193,0.11526 -0.09922,0.22585 -0.177756,0.32006 -0.07853,0.0942 -0.179059,0.17167 -0.294222,0.21386 -0.07526,0.0276 -0.155383,0.0398 -0.231024,0.0663 -0.03782,0.0133 -0.07462,0.0302 -0.107226,0.0535 -0.03261,0.0233 -0.06097,0.0532 -0.07923,0.0889 -0.01608,0.0314 -0.024,0.0665 -0.02643,0.10175 -0.0024,0.0352 5e-4,0.0706 0.0052,0.10554 0.0094,0.0699 0.02595,0.13978 0.02123,0.21019 -0.0043,0.0637 -0.026,0.12534 -0.05693,0.18116 -0.03093,0.0558 -0.0709,0.10613 -0.113457,0.15368 -0.08511,0.0951 -0.182224,0.18148 -0.247095,0.29138 -0.09062,0.15353 -0.109843,0.34002 -0.09481,0.51767 0.01503,0.17764 0.0618,0.35083 0.09481,0.52603 0.06764,0.35896 0.07726,0.73034 0.01125,1.0896 -0.06601,0.35927 -0.208814,0.70615 -0.428728,0.99781 -0.0478,0.0634 -0.0993,0.12437 -0.139871,0.19263 -0.04057,0.0683 -0.07014,0.14546 -0.06887,0.22485 0.0012,0.0722 0.02747,0.1414 0.04018,0.2125 0.0064,0.0356 0.0093,0.0721 0.0039,0.10778 -0.0054,0.0357 -0.01954,0.0707 -0.04409,0.0972 -0.02692,0.029 -0.06593,0.0465 -0.105529,0.0473 -0.0396,7.5e-4 -0.07924,-0.0152 -0.107245,-0.0432 -0.028,-0.028 -0.04399,-0.0676 -0.04324,-0.10724 7.51e-4,-0.0396 0.01823,-0.0786 0.04727,-0.10553"
       id="path8"
       inkscape:path-effect="#path-effect8"
       inkscape:original-d="m 65.961843,96.437884 c -0.266872,1.601234 -0.209875,1.729325 -1.0437,3.54858 -0.428045,0.933916 -1.036065,1.778366 -1.46118,2.713616 -0.487709,1.07296 -0.674095,2.23103 -1.0437,3.33984 -0.345911,1.03774 -0.909335,1.89305 -1.25244,2.92236 -0.100948,0.30285 -0.402081,1.02831 -0.62622,1.25244 -0.110016,0.11002 -0.331177,0.0793 -0.41748,0.20874 -0.07719,0.11579 0.03375,0.28248 0,0.41748 -0.251999,1.008 -0.0992,-0.0103 -0.41748,0.62622 -0.1123,0.22461 0.03332,0.81048 0,1.0437 -0.10035,0.70245 -0.222544,1.40513 -0.41748,2.08741 -0.04274,0.14959 -0.15954,0.26987 -0.20874,0.41748 -0.04401,0.13201 0.13916,0.41748 0,0.41748 -0.0984,0 -0.13916,-0.13916 -0.20874,-0.20874" />
    <path
       style="fill:#d2d2c9;fill-opacity:1;stroke:#000000;stroke-width:1px;stroke-linecap:butt;stroke-linejoin:miter;stroke-opacity:1"
       d="m 82.034824,94.350484 c 1.336272,1.579346 2.804194,3.047268 4.38354,4.38354 1.785579,1.510766 3.708534,2.849786 5.63598,4.174796 0.328805,0.22603 0.659031,0.45268 0.953826,0.72156 0.294795,0.26889 0.554992,0.58333 0.716094,0.94836 0.06303,0.14281 0.111988,0.29498 0.20874,0.41748 0.07831,0.0991 0.183889,0.17326 0.293492,0.2361 0.109603,0.0628 0.224723,0.11584 0.332728,0.18138 0.276232,0.16763 0.497699,0.41222 0.691214,0.67097 0.193515,0.25876 0.363169,0.53491 0.561226,0.79021 0.894161,1.15259 2.279142,1.78619 3.54858,2.50488 0.571403,0.3235 1.128746,0.67184 1.669916,1.0437 -0.0187,0.0822 -0.008,0.17074 0.0296,0.24613 0.0377,0.0754 0.10215,0.13704 0.17914,0.17135 0.0739,0.0329 0.15638,0.0406 0.23393,0.0638 0.0388,0.0116 0.0767,0.0273 0.10955,0.051 0.0328,0.0237 0.0603,0.0558 0.074,0.0939 0.0118,0.033 0.0129,0.069 0.0104,0.10399 -0.003,0.035 -0.009,0.0697 -0.0104,0.10475 -0.004,0.0754 0.0122,0.15168 0.0461,0.21911 0.0339,0.0674 0.0855,0.12584 0.14835,0.1677 0.0628,0.0419 0.13657,0.0671 0.21185,0.0724 0.0753,0.005 0.15189,-0.009 0.21997,-0.0418"
       id="path9"
       inkscape:path-effect="#path-effect9"
       inkscape:original-d="m 82.034824,94.350484 c 1.46118,1.46118 2.812288,3.041429 4.38354,4.38354 1.7777,1.518456 3.805122,2.720886 5.63598,4.174796 0.616471,0.48956 1.233256,1.01493 1.66992,1.66992 0.0863,0.12946 0.09872,0.30747 0.20874,0.41748 0.177395,0.1774 0.448825,0.24009 0.62622,0.41748 0.452699,0.4527 0.643952,0.92031 1.25244,1.46118 1.100293,0.97804 2.310397,1.71695 3.54858,2.50488 0.518624,0.33004 1.163826,0.66413 1.669916,1.0437 0.41353,-0.0208 0.0987,0.30747 0.20874,0.41748 0.11002,0.11002 0.30747,0.0987 0.41748,0.20874 0.0492,0.0492 -0.0492,0.15954 0,0.20874 0.20185,0.20185 0.62622,0.0454 0.62622,0.41748" />
    <path
       style="fill:#d2d2c9;fill-opacity:1;stroke:#353535;stroke-width:0.2;stroke-linecap:round;paint-order:stroke fill markers"
       d="m 64.383933,60.105068 c -0.165412,-0.10466 -0.782088,-0.191732 -1.37039,-0.19349 -1.354112,-0.004 -2.394055,-0.373043 -4.647818,-1.64916 -0.98845,-0.559678 -2.283101,-1.174906 -2.877003,-1.367174 -0.593901,-0.192271 -1.192484,-0.485333 -1.330184,-0.65125 -0.1377,-0.16592 -0.370874,-0.301672 -0.518165,-0.301672 -0.147291,0 -0.661308,-0.328765 -1.142261,-0.73059 -0.480952,-0.401824 -0.985516,-0.73059 -1.121252,-0.73059 -0.934216,0 -5.987238,-4.780167 -6.356753,-6.013499 -0.132256,-0.441431 -0.627007,-1.400656 -1.099447,-2.131611 -0.59032,-0.91334 -0.914716,-1.691771 -1.037181,-2.488855 -0.09801,-0.637916 -0.319015,-1.535577 -0.491122,-1.994805 -0.438503,-1.170048 -0.419152,-1.446564 0.38369,-5.482863 0.533525,-2.682303 0.961207,-4.190598 1.685485,-5.944162 0.533802,-1.292399 1.240277,-3.127395 1.569946,-4.077771 0.368578,-1.062544 0.885072,-2.061701 1.341245,-2.594637 0.475874,-0.555952 0.741849,-1.081212 0.741849,-1.46504 0,-0.456609 0.155652,-0.682591 0.657057,-0.953942 0.361382,-0.195572 0.948463,-0.590419 1.304625,-0.877436 0.833118,-0.671378 1.503823,-1.0437 1.880131,-1.0437 0.164394,0 0.776924,-0.408036 1.361178,-0.906746 0.700464,-0.597905 1.500371,-1.039389 2.348499,-1.296181 0.70742,-0.21419 1.857409,-0.762402 2.55553,-1.218249 2.605232,-1.701119 4.897932,-2.161237 6.274566,-1.259231 0.537284,0.352043 0.598466,0.349257 1.597241,-0.07271 0.962396,-0.406601 1.110459,-0.416958 2.01905,-0.141229 0.539272,0.163653 1.570592,0.298566 2.291824,0.299809 1.513722,0.0026 2.500899,0.358529 3.550538,1.280123 0.409061,0.359162 1.03238,0.773969 1.385151,0.921793 0.35277,0.147824 0.876234,0.523911 1.163251,0.835749 0.287018,0.311839 0.803649,0.701405 1.14807,0.865703 1.162233,0.554417 1.593384,0.846756 1.905037,1.291705 0.170724,0.243741 0.491167,0.443167 0.712098,0.443167 0.22093,0 0.99055,0.290768 1.710269,0.646152 0.995918,0.491767 1.480869,0.896571 2.029667,1.694229 0.3966,0.576442 1.637544,1.790248 2.757656,2.697347 1.593874,1.290766 2.131517,1.864001 2.473385,2.637126 0.240252,0.543321 0.68262,1.244531 0.98304,1.558244 0.333934,0.34871 0.859993,1.484468 1.353579,2.92236 1.256411,3.660129 1.268129,3.736365 0.887001,5.77032 -0.185158,0.988125 -0.414793,3.01852 -0.5103,4.511992 -0.09551,1.49347 -0.244326,2.903267 -0.330707,3.132881 -0.606839,1.613074 -3.34695,7.414303 -3.841605,8.133262 -1.546064,2.247126 -3.814866,3.40657 -9.39853,4.803006 -2.654271,0.663816 -4.449082,0.994136 -5.74035,1.056472 -4.679139,0.225878 -7.981358,0.259932 -8.25759,0.08516 z m 14.857933,-5.593316 c 1.982326,-0.133249 2.019776,-0.145771 2.92236,-0.977137 0.502863,-0.463186 1.35424,-1.144419 1.891946,-1.513851 1.319907,-0.906846 1.839939,-1.701401 2.046143,-3.126291 0.0953,-0.65856 0.263855,-1.432213 0.374557,-1.719231 0.110699,-0.287017 0.26899,-1.707236 0.351756,-3.156045 0.124939,-2.187092 0.09531,-2.740883 -0.17458,-3.26279 -0.389405,-0.753025 -1.492364,-1.722025 -1.960085,-1.722025 -0.632781,0 -2.032976,0.82685 -2.442008,1.442068 -0.254045,0.382104 -0.656508,0.661718 -1.061917,0.737772 -0.359058,0.06736 -1.035296,0.44985 -1.502755,0.849977 -0.487719,0.41747 -1.076228,0.727503 -1.380955,0.727503 -0.610664,0 -1.532554,0.359325 -2.066367,0.805411 -0.310374,0.259365 -1.766513,0.309968 -9.350348,0.324933 l -8.982725,0.01773 0.125849,0.52185 c 0.06922,0.287017 0.308205,0.903757 0.531083,1.370528 0.222878,0.466774 0.405939,0.983406 0.406803,1.14807 0.0021,0.393839 1.643508,1.982068 2.236961,2.164444 0.255333,0.07847 0.662521,0.421125 0.904862,0.761463 0.242341,0.340336 0.934823,0.93493 1.538847,1.32132 0.604025,0.38639 1.542579,1.041709 2.085672,1.456262 0.543096,0.414554 1.099344,0.753733 1.236111,0.753733 0.136766,0 0.622719,0.258316 1.079897,0.574035 0.748657,0.517012 1.069693,0.587299 3.23174,0.707554 2.291433,0.12745 3.411467,0.09828 7.957153,-0.207279 z M 53.62911,33.271699 c 0.219599,-0.08427 0.330182,-0.38803 0.330182,-0.906978 0,-0.527843 0.141976,-0.908762 0.438851,-1.17743 0.241368,-0.218435 0.572546,-0.655692 0.73595,-0.971682 0.163405,-0.31599 0.471053,-0.574528 0.683661,-0.574528 0.212608,0 0.503496,-0.140899 0.646418,-0.31311 0.177646,-0.214049 0.652356,-0.31311 1.500462,-0.31311 0.682333,0 1.422295,-0.09724 1.644361,-0.216084 0.222067,-0.118846 0.403758,-0.133548 0.403758,-0.03267 0,0.100878 0.469483,0.503398 1.043296,0.894489 0.573813,0.391091 1.043478,0.768749 1.0437,0.83924 2.3e-4,0.07049 0.370316,0.384516 0.82243,0.697832 0.645034,0.447008 0.959647,0.539438 1.46118,0.429283 0.351535,-0.07721 0.639154,-0.220142 0.639154,-0.317626 0,-0.227258 -0.602478,-0.833285 -0.828406,-0.833285 -0.175673,0 -0.723966,-0.452907 -2.469676,-2.040034 -1.183251,-1.075763 -1.673097,-1.229681 -2.519882,-0.791792 -0.437211,0.226091 -0.903576,0.291807 -1.450356,0.204374 -1.100255,-0.175938 -2.937073,0.660155 -3.557109,1.619145 -0.247215,0.382358 -0.68365,1.014371 -0.969856,1.404471 -0.332241,0.452846 -0.520376,0.987405 -0.520376,1.478576 0,1.014901 0.188037,1.202665 0.922258,0.920918 z m 17.737262,-3.682803 c 0.284208,-0.487929 0.71445,-1.418806 0.9561,-2.068614 0.454496,-1.222173 0.836453,-1.593772 2.10878,-2.05159 0.724526,-0.260705 0.790703,-0.23952 2.29614,0.735068 0.852561,0.551931 1.946342,1.433701 2.430625,1.959491 0.740636,0.804113 0.939599,0.919266 1.25244,0.724867 0.204559,-0.127113 0.403521,-0.391781 0.442136,-0.588152 0.08683,-0.441586 -1.887707,-2.366915 -3.019063,-2.943815 -0.444082,-0.226446 -1.157515,-0.633971 -1.585412,-0.905612 -0.92759,-0.588861 -1.619304,-0.514479 -3.189115,0.342935 -0.700201,0.382442 -1.15734,0.810241 -1.388987,1.299838 -0.189908,0.401378 -0.6747,1.411319 -1.077318,2.244313 l -0.732032,1.514533 0.445359,0.311942 c 0.244948,0.171568 0.467467,0.311941 0.494484,0.311941 0.02702,0 0.281657,-0.399215 0.565863,-0.887145 z"
       id="path10" />
    <path
       style="fill:#a4a4a4;fill-opacity:1;stroke:#353535;stroke-width:0.2;stroke-linecap:round;paint-order:stroke fill markers"
       d="M 75.255708,98.426168 C 74.683419,97.816994 73.665231,97.426433 71.413043,96.952184 69.94832,96.643752 69.487417,96.415259 67.227212,94.877054 65.830283,93.92636 64.294354,92.948033 63.814036,92.702993 63.251945,92.416235 62.798871,91.979514 62.542654,91.4775 62.323711,91.048519 61.937098,90.50989 61.683514,90.280547 60.736022,89.42363 60.594694,88.812476 60.417195,84.80452 60.323909,82.698111 60.227622,80.219505 60.203223,79.296508 l -0.04436,-1.678177 1.042485,-0.595388 c 1.820097,-1.0395 3.570333,-2.853215 5.010045,-5.191751 0.027,-0.04386 0.585939,0.410905 1.242084,1.010585 1.618577,1.479288 3.962239,3.03242 6.057606,4.014342 1.898225,0.889538 2.222622,1.272699 2.426436,2.865982 0.06949,0.543194 0.381828,1.296987 0.759347,1.832578 0.352719,0.500407 0.641307,1.035316 0.641307,1.188687 0,0.153371 0.187866,0.51769 0.41748,0.809597 0.229614,0.291907 0.41748,0.76102 0.41748,1.042474 0,0.281454 0.329804,0.924169 0.732897,1.428256 0.959426,1.199806 1.354504,2.577132 1.354504,4.722094 0,1.930014 -0.163474,2.386179 -1.372759,3.830631 -0.424604,0.507174 -0.941033,1.315298 -1.147621,1.79583 -0.206587,0.480534 -0.617482,1.032173 -0.913099,1.22587 -0.295617,0.193696 -0.593531,0.575479 -0.662032,0.848411 -0.157112,0.625982 -0.305222,0.622667 -0.909315,-0.02035 z"
       id="path11" />
    <path
       style="fill:#a4a4a4;fill-opacity:1;stroke:#353535;stroke-width:0.2;stroke-linecap:round;paint-order:stroke fill markers"
       d="m 71.200497,53.503776 c -1.370964,-0.06161 -2.00069,-0.184521 -2.40051,-0.46853 -0.298102,-0.211754 -0.917736,-0.541635 -1.376964,-0.733069 -0.459228,-0.191434 -1.069793,-0.56795 -1.35681,-0.836703 -0.287018,-0.268753 -0.993519,-0.775242 -1.570003,-1.125532 -0.576484,-0.350289 -1.263985,-0.928817 -1.527778,-1.285617 -0.263794,-0.3568 -0.731455,-0.761174 -1.039247,-0.89861 -0.804521,-0.359236 -1.916432,-1.522473 -1.916432,-2.004896 0,-0.226665 -0.09393,-0.470172 -0.20874,-0.541127 -0.114807,-0.07096 -0.208419,-0.193914 -0.208027,-0.273244 3.93e-4,-0.07933 3.726806,-0.167439 8.280919,-0.195798 6.775804,-0.04219 8.36323,-0.105961 8.737169,-0.350976 0.25133,-0.164677 0.979018,-0.451179 1.617084,-0.63667 0.638067,-0.185491 1.584901,-0.6616 2.104075,-1.058019 0.519176,-0.39642 1.140349,-0.720763 1.380387,-0.720763 0.250662,0 0.873947,-0.451545 1.464289,-1.060819 1.138015,-1.174509 1.503205,-1.230426 2.172632,-0.332666 0.391599,0.525167 0.432351,0.819568 0.373203,2.696013 -0.03652,1.158557 -0.194369,2.490123 -0.350769,2.959035 -0.156403,0.468912 -0.343284,1.228299 -0.415291,1.687527 -0.07201,0.459228 -0.173744,1.044222 -0.22608,1.299987 -0.05308,0.259423 -0.624583,0.853738 -1.292597,1.344202 -0.658594,0.483547 -1.526209,1.179665 -1.928033,1.546928 -0.656206,0.599765 -0.900613,0.680727 -2.400511,0.795194 -2.684025,0.204834 -5.911783,0.284041 -7.911966,0.194153 z"
       id="path12" />
    <path
       style="fill:#fe5099;fill-opacity:1;stroke:#353535;stroke-width:0.2;stroke-linecap:round;paint-order:stroke fill markers"
       d="m 69.719163,53.246117 c -1.323225,-0.381624 -6.57531,-3.742368 -6.57531,-4.207459 0,-0.104077 -0.517578,-0.532884 -1.150174,-0.952904 -1.121213,-0.744443 -1.980926,-1.793566 -1.980926,-2.417357 0,-0.266082 1.120027,-0.325818 7.984305,-0.425838 l 7.984305,-0.116341 1.691807,-0.65211 c 0.930493,-0.358661 2.114688,-0.920295 2.631544,-1.248075 0.516856,-0.32778 1.147266,-0.661831 1.400912,-0.742335 0.253646,-0.0805 0.927764,-0.560768 1.498039,-1.067254 0.570276,-0.506485 1.176008,-0.920882 1.346075,-0.920882 0.170065,0 0.502627,0.305282 0.739027,0.678405 0.378235,0.596992 0.416493,0.903855 0.318798,2.557065 -0.09098,1.539588 -0.581161,4.239944 -1.083907,5.971151 -0.123843,0.426452 -3.391946,3.026239 -4.181569,3.326454 -0.740167,0.28141 -9.760909,0.466089 -10.622926,0.21748 z"
       id="path13" />
    <path
       style="fill:#0cff5c;fill-opacity:1;stroke:#353535;stroke-width:0.2;stroke-linecap:round;paint-order:stroke fill markers"
       d="m 62.816237,59.821415 c -1.271887,-0.211272 -2.243225,-0.561427 -3.966059,-1.429708 -1.2549,-0.632451 -2.896788,-1.438073 -3.64864,-1.790271 -0.751853,-0.352197 -1.926015,-1.020088 -2.60925,-1.484198 -0.683235,-0.464113 -1.31983,-0.844065 -1.414656,-0.844339 -0.374404,-0.001 -2.653483,-1.933661 -4.124836,-3.497718 -2.412225,-2.564211 -4.342041,-6.650263 -4.710648,-9.973988 -0.120105,-1.082983 0.393493,-4.150351 1.201298,-7.174524 0.612199,-2.291887 3.083148,-8.549098 3.779952,-9.572013 0.33336,-0.489377 0.719567,-1.217489 0.858237,-1.618028 0.190447,-0.550093 0.628683,-0.983509 1.791362,-1.771659 0.846578,-0.573875 1.653617,-1.043408 1.793417,-1.043408 0.139801,0 0.703125,-0.342792 1.251831,-0.76176 0.548705,-0.418968 1.759859,-1.102454 2.691452,-1.518858 0.931593,-0.416404 2.316948,-1.10886 3.078566,-1.538792 2.548659,-1.438715 4.039422,-1.689326 5.758442,-0.968052 0.586584,0.246122 0.80493,0.234363 1.713262,-0.09227 0.572551,-0.205886 1.127153,-0.321093 1.232452,-0.256016 0.105296,0.06508 1.119057,0.220939 2.252797,0.346358 2.548578,0.281935 3.890116,0.902258 6.449384,2.982171 0.346894,0.28192 1.004425,0.725367 1.46118,0.985437 0.456754,0.26007 1.112262,0.724879 1.456683,1.03291 0.344421,0.308031 1.221265,0.776702 1.94854,1.041491 1.155128,0.420563 1.61895,0.777242 3.668395,2.820992 1.290341,1.286757 2.587754,2.497911 2.88314,2.691455 0.295384,0.193543 0.765538,0.69969 1.044786,1.12477 0.279248,0.42508 0.889382,1.359569 1.355856,2.076643 0.53218,0.818078 1.182708,2.317942 1.746248,4.026162 l 0.89811,2.722393 -0.267287,1.818557 c -0.147008,1.000207 -0.388823,3.13362 -0.537366,4.740918 -0.298774,3.232859 -0.366644,3.441309 -2.690066,8.262138 -0.783522,1.625717 -1.721767,3.226259 -2.229143,3.802667 -1.546778,1.757234 -5.554471,3.345553 -11.414158,4.523636 -2.793474,0.561623 -10.172325,0.757317 -12.703281,0.336902 z m 17.151687,-5.257952 c 1.189643,-0.126325 1.401361,-0.237262 3.23547,-1.695332 1.07939,-0.85809 2.136243,-1.832666 2.348561,-2.165723 0.598992,-0.939621 1.18723,-3.994382 1.323422,-6.872615 0.102997,-2.176676 0.06685,-2.724842 -0.215676,-3.271198 -0.440916,-0.852634 -1.398394,-1.524213 -2.173086,-1.524213 -0.616641,0 -1.884029,0.786801 -2.640699,1.63936 -0.218705,0.246422 -0.535627,0.44804 -0.704268,0.44804 -0.168643,0 -0.869285,0.375732 -1.556985,0.83496 -0.687699,0.459228 -1.452399,0.83496 -1.699332,0.83496 -0.246933,0 -0.82331,0.211349 -1.280839,0.469665 -0.818261,0.461981 -0.979291,0.471372 -9.844091,0.574035 l -9.012222,0.10437 0.394323,1.119118 c 0.72719,2.063821 1.242851,2.90259 2.221621,3.613669 0.525737,0.381948 1.436701,1.124595 2.024363,1.650326 2.368165,2.118588 5.788095,4.133411 7.435047,4.380296 1.214401,0.182042 7.993553,0.08868 10.144391,-0.139718 z M 54.054844,32.446527 c 0.119657,-0.466127 0.428908,-1.112842 0.687223,-1.437145 0.258316,-0.324303 0.469665,-0.670426 0.469665,-0.769162 0,-0.344336 1.78512,-0.999489 3.235355,-1.187401 l 1.461064,-0.189314 0.939446,0.743404 c 0.516695,0.408873 1.033379,0.845592 1.148186,0.970488 0.114807,0.124895 0.505039,0.434983 0.867183,0.689083 1.339213,0.939668 2.953496,0.278425 1.646061,-0.674261 C 64.185,30.356111 63.169361,29.520045 62.25205,28.734295 60.693052,27.39889 60.534916,27.314253 59.828817,27.43735 c -0.415467,0.07243 -1.423098,0.205747 -2.239179,0.296261 -1.883283,0.208878 -2.655311,0.66399 -3.891271,2.293912 -0.876851,1.156347 -0.991515,1.428469 -0.991515,2.353084 0,1.01372 0.01719,1.043515 0.565217,0.979474 0.466471,-0.05451 0.603225,-0.214112 0.782775,-0.913554 z m 17.992463,-4.038891 c 0.8117,-1.719305 1.107587,-2.142073 1.753116,-2.50488 0.427132,-0.240061 0.952933,-0.436475 1.168447,-0.436475 0.523365,0 2.423298,1.281616 3.780805,2.550375 1.241644,1.160469 1.986688,1.288867 2.094782,0.361007 0.128707,-1.104792 -4.199184,-4.372562 -5.791095,-4.372562 -0.790382,0 -2.463554,0.820505 -3.043918,1.492703 -0.232837,0.26968 -0.84307,1.367021 -1.356075,2.438536 -0.905402,1.891113 -0.920884,1.956876 -0.52828,2.243955 0.22245,0.16266 0.526238,0.295746 0.67508,0.295746 0.148844,0 0.710056,-0.930782 1.247138,-2.068405 z"
       id="path14" />
    <path
       style="fill:#0c16ff;fill-opacity:1;stroke:#353535;stroke-width:0.2;stroke-linecap:round;paint-order:stroke fill markers"
       d="m 75.451341,98.411066 c -0.441508,-0.531982 -1.275762,-0.88205 -3.25224,-1.364692 -2.093919,-0.511321 -2.437619,-0.68392 -6.310551,-3.169007 -1.930114,-1.238468 -2.949814,-2.034239 -3.316782,-2.588406 -0.291428,-0.440092 -0.743451,-1.035 -1.004495,-1.322017 -0.668965,-0.735525 -0.882242,-1.781382 -1.021615,-5.00976 -0.06691,-1.549895 -0.17473,-3.821475 -0.239598,-5.047956 l -0.117942,-2.229965 0.695093,-0.352772 c 1.31838,-0.669103 2.722123,-1.871462 3.928097,-3.364566 0.665278,-0.823673 1.24998,-1.618737 1.299337,-1.766807 0.05727,-0.171822 0.612975,0.175421 1.536019,0.959815 1.712601,1.455354 3.599348,2.700935 5.651594,3.731035 1.668206,0.837336 2.29296,1.490705 2.498527,2.612967 0.07673,0.418879 0.642794,1.7541 1.257927,2.967158 0.615132,1.213057 1.118421,2.303662 1.118421,2.423566 0,0.119904 0.250653,0.583363 0.557006,1.029911 0.982903,1.4327 1.338341,2.674364 1.341539,4.686453 0.003,1.892163 -0.241884,2.722714 -1.073299,3.640091 -0.208099,0.229614 -0.69464,0.943829 -1.081203,1.587144 -0.386562,0.643314 -1.037745,1.560925 -1.447073,2.039131 -0.659649,0.770652 -0.775432,0.831873 -1.018762,0.538677 z"
       id="path15" />
    <path
       style="fill:#0c16ff;fill-opacity:1;stroke:#353535;stroke-width:0.2;stroke-linecap:round;paint-order:stroke fill markers"
       d="m 62.316163,59.582625 c -1.587343,-0.34412 -6.721451,-2.800777 -10.027729,-4.79824 -2.565207,-1.549752 -4.995072,-3.692752 -6.356666,-5.606214 -2.001108,-2.812176 -3.453213,-6.549376 -3.45314,-8.887154 1.08e-4,-3.503471 2.243897,-10.808405 4.954271,-16.129247 1.177967,-2.312514 1.691171,-2.8988 3.361421,-3.840101 0.535261,-0.301656 1.471455,-0.868734 2.080432,-1.260172 0.608976,-0.391438 2.815829,-1.559754 4.904118,-2.596258 3.748626,-1.860598 3.812824,-1.883263 5.0506,-1.783041 0.689543,0.05583 1.562619,0.167958 1.940169,0.249171 0.387102,0.08327 1.078656,0.03785 1.58581,-0.104144 0.730321,-0.204477 1.311683,-0.190545 3.093212,0.07413 2.450898,0.364115 3.716975,0.833105 5.270051,1.952176 3.443811,2.481443 5.217575,3.642456 6.399902,4.189039 1.026875,0.474719 2.005979,1.252795 4.25605,3.382203 3.908356,3.698764 4.837368,5.086069 6.356872,9.492797 0.799526,2.318717 0.834282,2.519811 0.644944,3.731618 -0.110069,0.704456 -0.351015,2.675938 -0.535435,4.381075 -0.18442,1.705134 -0.51726,3.689329 -0.739643,4.409322 -0.564673,1.828199 -3.360211,7.344774 -4.246964,8.380744 -1.743588,2.036989 -8.195813,4.303238 -13.869736,4.871541 -3.076587,0.308152 -9.024127,0.247255 -10.668539,-0.10924 z m 18.586753,-5.087818 c 0.410713,-0.122174 1.643473,-0.964791 2.739467,-1.87248 1.693322,-1.402388 2.045096,-1.802274 2.341359,-2.661568 0.518861,-1.504935 0.95385,-4.707317 0.95524,-7.032481 0.0015,-2.270387 -0.239596,-2.950007 -1.259522,-3.552494 -1.082745,-0.639592 -2.05839,-0.387811 -3.683128,0.950488 -0.759192,0.625349 -2.981043,1.827222 -5.180009,2.802038 -0.899968,0.398962 -6.236786,0.643681 -14.977095,0.686769 -2.531176,0.01248 -4.122615,0.09906 -4.122615,0.224297 0,0.421248 1.052495,2.979401 1.462992,3.555891 0.871259,1.223571 5.990556,5.163919 8.139048,6.264665 1.965655,1.007073 2.288442,1.046733 7.72338,0.948986 2.812772,-0.05059 5.450169,-0.191938 5.860883,-0.314111 z M 54.268018,32.240224 c 0.812951,-1.838227 1.206875,-2.265987 2.440407,-2.650028 0.611907,-0.190508 1.582223,-0.40511 2.156258,-0.476893 1.027575,-0.1285 1.064831,-0.112985 2.411491,1.004195 1.704102,1.413713 2.07171,1.610983 3.002026,1.610983 1.306118,0 0.971025,-0.629464 -1.395272,-2.620989 l -2.139585,-1.800719 -1.56555,0.136869 c -3.331602,0.291266 -4.046625,0.629119 -5.665285,2.676878 -0.710178,0.898441 -0.805656,1.153066 -0.805656,2.148556 0,1.066965 0.02896,1.129325 0.524483,1.129325 0.435587,0 0.611295,-0.196299 1.036683,-1.158177 z m 17.844449,-3.688599 c 1.19104,-2.224321 1.538427,-2.622926 2.431984,-2.790559 0.851699,-0.15978 1.852428,0.38592 3.837422,2.092555 1.556226,1.337994 2.350281,1.493418 2.466564,0.482792 0.142432,-1.237881 -3.708135,-4.132257 -5.687783,-4.275366 -0.881085,-0.06369 -1.237091,0.02831 -2.129509,0.550337 -0.965133,0.56456 -1.177638,0.833327 -2.139585,2.706043 -1.084908,2.112089 -1.275993,2.828091 -0.807102,3.024231 0.718684,0.300631 1.078681,-0.01712 2.028009,-1.790033 z"
       id="path16" />
  </g>
</svg>
